<svg xmlns="http://www.w3.org/2000/svg" xmlns:xlink="http://www.w3.org/1999/xlink" width="28.794" height="22.234" viewBox="0 0 28.794 22.234">
  <defs>
    <clipPath id="clip-path">
      <rect id="Rectangle_2" data-name="Rectangle 2" width="28.794" height="22.234" fill="none"/>
    </clipPath>
  </defs>
  <g id="Group_25310" data-name="Group 25310" transform="translate(0 -17)">
    <g id="Group_1" data-name="Group 1" transform="translate(0 17)" clip-path="url(#clip-path)">
      <path id="Path_1" data-name="Path 1" d="M6.341,63.008H7.354a.3.3,0,0,0,.092.05,7.23,7.23,0,0,1,2.293.709,17.92,17.92,0,0,1,3.879,2.648c.417.359.825.726,1.238,1.09.41.492.87.938,1.325,1.388l.615.614c.225.2.447.395.674.587a23.112,23.112,0,0,0,3.094,2.354,6.138,6.138,0,0,0,1.781.781,6.665,6.665,0,0,0,3.058.086c.245-.056.5-.1.735-.171a4.111,4.111,0,0,0,2.92-2.509c.008-.022.038-.037.057-.055-.012.092-.017.185-.036.276a6.385,6.385,0,0,1-9.125,4.425A20.675,20.675,0,0,1,15.46,72.1a4.314,4.314,0,0,0-.65-.569,4.48,4.48,0,0,0-.644-.675q-.618-.692-1.292-1.33a14.841,14.841,0,0,0-1.6-1.439,10.414,10.414,0,0,0-4.029-2.277c-.073-.086-.181-.085-.279-.1a7,7,0,0,0-2.4-.045,5.763,5.763,0,0,0-2.336.806c-.041.022-.083.042-.123.067A3.9,3.9,0,0,0,.617,68.3c-.052-.037-.056-.077-.039-.143A6.48,6.48,0,0,1,5.7,63.149a2.154,2.154,0,0,0,.646-.141" transform="translate(-0.437 -53.754)" fill="#ff659b"/>
      <path id="Path_2" data-name="Path 2" d="M81.445,63.008a3.334,3.334,0,0,0,.757.153,6.512,6.512,0,0,1,5.2,6.623,4.826,4.826,0,0,0-.113.8c-.02.018-.049.033-.057.055a4.111,4.111,0,0,1-2.92,2.509c-.239.076-.49.115-.735.171a.865.865,0,0,1,.08-.077,4.525,4.525,0,0,0,1.882-3.393,4.627,4.627,0,0,0-2.53-4.462,4.7,4.7,0,0,0-2.777-.459c-.507-.076-1-.21-1.521-.239a9.276,9.276,0,0,0-2.533.234,10.073,10.073,0,0,1,3.8-1.8,1.056,1.056,0,0,0,.451-.113Z" transform="translate(-58.616 -53.754)" fill="#52e4ff"/>
      <path id="Path_3" data-name="Path 3" d="M11.133,85.7a8.513,8.513,0,0,1-4.144,1.791A6.429,6.429,0,0,1,.455,83.428a7,7,0,0,1-.392-1.456C.054,81.92.07,81.856,0,81.83V80.316l.179-.486a3.9,3.9,0,0,1,1.49-1.77c.039-.024.082-.044.123-.067a.482.482,0,0,1-.118.279,5.259,5.259,0,0,0-.7,3.425,5.393,5.393,0,0,0,3.413,4.478,4.818,4.818,0,0,0,2.66.374,7.742,7.742,0,0,0,1.99-.656l.067-.022a7.65,7.65,0,0,0,1.116-.042,5.1,5.1,0,0,1,.909-.131" transform="translate(0 -65.284)" fill="#02c5f3"/>
      <path id="Path_4" data-name="Path 4" d="M9.9,74.372a3.983,3.983,0,0,0-2.159.5,3.714,3.714,0,0,0-.917,5.683,7.761,7.761,0,0,1,.664.669,6.069,6.069,0,0,0,1.159.773,8.15,8.15,0,0,0,3.488.934,7.726,7.726,0,0,1-1.99.656,4.819,4.819,0,0,1-2.66-.374,5.393,5.393,0,0,1-3.413-4.479,5.259,5.259,0,0,1,.7-3.425.483.483,0,0,0,.118-.279,5.761,5.761,0,0,1,2.335-.806,7,7,0,0,1,2.4.045c.1.019.206.018.279.1" transform="translate(-3.098 -62.32)" fill="#52e4ff"/>
      <path id="Path_5" data-name="Path 5" d="M23.706,96.1a8.148,8.148,0,0,1-3.488-.934,6.06,6.06,0,0,1-1.159-.773.4.4,0,0,1,.215.043A3.569,3.569,0,0,0,23.15,94.3a23.759,23.759,0,0,0,3.118-2.335c.279-.235.555-.473.833-.709q.674.638,1.292,1.33a24.857,24.857,0,0,1-2.61,2.228,20.667,20.667,0,0,1-2.01,1.261l-.067.022" transform="translate(-14.665 -75.49)" fill="#67dd86"/>
      <path id="Path_6" data-name="Path 6" d="M62.532,73.065a26.147,26.147,0,0,1,2.862-2.412c.09-.065.19-.115.285-.172a9.282,9.282,0,0,1,2.532-.234c.516.029,1.014.162,1.521.239l0,.04a4.29,4.29,0,0,0-1.27.432,17.962,17.962,0,0,0-4.5,3.307.287.287,0,0,0-.108.19c-.455-.45-.914-.9-1.325-1.388" transform="translate(-48.114 -59.314)" fill="#67dd86"/>
      <path id="Path_7" data-name="Path 7" d="M93.765,71.22l0-.04a4.7,4.7,0,0,1,2.778.459,4.627,4.627,0,0,1,2.53,4.462,4.525,4.525,0,0,1-1.882,3.393.864.864,0,0,0-.08.077,6.665,6.665,0,0,1-3.058-.086,5.99,5.99,0,0,0,1.436-.172,3.688,3.688,0,0,0,1.565-6.144c-.175-.174-.31-.4-.561-.493a.222.222,0,0,0-.11-.184,7.066,7.066,0,0,0-2.616-1.272" transform="translate(-72.143 -60.008)" fill="#02c5f3"/>
      <path id="Path_8" data-name="Path 8" d="M74.157,71.5a7.066,7.066,0,0,1,2.616,1.272.222.222,0,0,1,.11.184,3.582,3.582,0,0,0-2.54-.551,5.618,5.618,0,0,0-1.75.733,20.144,20.144,0,0,0-3.7,2.9l-.615-.614a.287.287,0,0,1,.108-.19,17.962,17.962,0,0,1,4.5-3.307,4.29,4.29,0,0,1,1.27-.432" transform="translate(-52.535 -60.286)" fill="#02c179"/>
      <path id="Path_9" data-name="Path 9" d="M39.5,100.518a20.639,20.639,0,0,0,2.01-1.262,24.855,24.855,0,0,0,2.61-2.228,4.458,4.458,0,0,1,.644.675,25.6,25.6,0,0,1-2.918,2.447c-.075.053-.157.1-.237.144l-.086.053,0,0a5.139,5.139,0,0,0-.909.131,7.652,7.652,0,0,1-1.116.042" transform="translate(-30.395 -79.93)" fill="#02c179"/>
      <path id="Path_10" data-name="Path 10" d="M48.278,111.245l.086-.053-.086.053" transform="translate(-37.147 -90.828)" fill="#02c5f3"/>
      <path id="Path_11" data-name="Path 11" d="M35.689,34.294a.631.631,0,0,1-.558-.334,11.317,11.317,0,0,0-19.977,0,.631.631,0,0,1-1.114-.594,12.58,12.58,0,0,1,22.205,0,.632.632,0,0,1-.557.928" transform="translate(-10.746 -25.817)" fill="#a3a3a3"/>
    </g>
  </g>
</svg>
