<svg xmlns="http://www.w3.org/2000/svg" width="20.18" height="21.6" viewBox="0 0 20.18 21.6">
  <path id="Path_63" data-name="Path 63" d="M4.393,21.3a4.971,4.971,0,0,1-1.656-.605,4.278,4.278,0,0,1-.8-6.681C4.2,11.74,6.49,9.485,8.766,7.222c.21-.209.415-.422.631-.624a2.84,2.84,0,0,1,3.662-.229,2.764,2.764,0,0,1,.372,3.927,4.31,4.31,0,0,1-.311.346q-3.4,3.406-6.807,6.81a.853.853,0,0,1-.635.313.685.685,0,0,1-.635-.373.709.709,0,0,1,.032-.758,1.59,1.59,0,0,1,.219-.249Q8.7,12.98,12.1,9.578a1.44,1.44,0,0,0,.465-1.384,1.254,1.254,0,0,0-2.025-.636,2.876,2.876,0,0,0-.3.263Q6.619,11.429,3,15.04a2.68,2.68,0,0,0-.706,2.837,2.638,2.638,0,0,0,2.134,1.912,2.685,2.685,0,0,0,2.541-.774q1.9-1.911,3.791-3.833,3.192-3.225,6.385-6.448a4.237,4.237,0,0,0-2.136-7.208,4.124,4.124,0,0,0-3.821,1.179c-1.6,1.573-3.178,3.16-4.768,4.74Q3.876,9.971,1.331,12.493A.755.755,0,0,1,0,12.292v-.444a1.319,1.319,0,0,1,.3-.41q.588-.573,1.171-1.15,4.328-4.3,8.653-8.6A6.067,6.067,0,0,1,11.756.523,6.521,6.521,0,0,1,13.534,0h1.331a.982.982,0,0,0,.106.029A5.649,5.649,0,0,1,19.288,3.1a6.116,6.116,0,0,1,.592,1.913V6.346a.561.561,0,0,0-.026.084,5.7,5.7,0,0,1-1.662,3.327Q15.5,12.475,12.82,15.2q-2.352,2.381-4.707,4.76a5.1,5.1,0,0,1-.689.59A4.551,4.551,0,0,1,5.5,21.3Z" transform="translate(0.15 0.15)" fill="#999" stroke="#999" stroke-width="0.3"/>
</svg>
