<svg xmlns="http://www.w3.org/2000/svg" xmlns:xlink="http://www.w3.org/1999/xlink" width="22.835" height="20.537" viewBox="0 0 22.835 20.537">
  <defs>
    <clipPath id="clip-path">
      <rect id="Rectangle_12" data-name="Rectangle 12" width="22.835" height="20.537" transform="translate(0 0)" fill="#939393"/>
    </clipPath>
  </defs>
  <g id="Group_25216" data-name="Group 25216" transform="translate(0 0)">
    <g id="Group_25216-2" data-name="Group 25216" transform="translate(0 0)" clip-path="url(#clip-path)">
      <path id="Path_29" data-name="Path 29" d="M0,13.957V1A1.464,1.464,0,0,1,1,0H21.838a1.464,1.464,0,0,1,1,1v12.96A1.453,1.453,0,0,1,21.3,14.972c-7.484-.006-12.281-.006-19.764,0A1.453,1.453,0,0,1,0,13.957m11.417-.113h9.847c.447,0,.478-.03.478-.482q0-5.894,0-11.788c0-.436-.037-.473-.466-.473H1.558c-.428,0-.465.037-.466.473q0,5.894,0,11.788c0,.453.031.482.478.482h9.847" transform="translate(0 0)" fill="#939393"/>
      <path id="Path_30" data-name="Path 30" d="M0,74.906a.792.792,0,0,1,.789-.362c3.221,0,5.1,0,8.318.007a.535.535,0,0,0,.583-.351,1.973,1.973,0,0,1,1.938-1.193A1.992,1.992,0,0,1,13.5,74.27a.412.412,0,0,0,.452.279c3.146,0,4.948,0,8.094,0a.793.793,0,0,1,.789.362v.4a.748.748,0,0,1-.758.366c-3.121,0-4.9,0-8.02,0-.091,0-.183,0-.274,0a.216.216,0,0,0-.225.157A2.188,2.188,0,0,1,11.966,77.2h-.8c-.07-.026-.139-.055-.21-.077A1.981,1.981,0,0,1,9.673,75.99a.469.469,0,0,0-.521-.327c-3.246.009-5.149,0-8.395.008A.748.748,0,0,1,0,75.3Zm11.574,1.188a.986.986,0,0,0,.014-1.972.986.986,0,1,0-.014,1.972" transform="translate(0 -56.662)" fill="#939393"/>
      <path id="Path_31" data-name="Path 31" d="M37.379,19.223q0-1.632,0-3.265a1.345,1.345,0,0,1,.051-.443.531.531,0,0,1,.7-.33,1.466,1.466,0,0,1,.3.174q2.337,1.658,4.672,3.32a.709.709,0,0,1,.342.439.6.6,0,0,1-.309.628l-2.944,2.095q-.914.65-1.827,1.3a.586.586,0,0,1-.647.115.627.627,0,0,1-.339-.619q0-1.707,0-3.414ZM38.521,16.8c-.01.079-.018.112-.018.144q0,2.239,0,4.478c0,.062-.03.145.046.179s.121-.038.172-.075q1.491-1.058,2.98-2.119c.24-.171.239-.186-.006-.361l-2.919-2.076c-.073-.052-.149-.1-.256-.171" transform="translate(-29.011 -11.756)" fill="#939393"/>
    </g>
  </g>
</svg>
