<svg id="Group_25209" data-name="Group 25209" xmlns="http://www.w3.org/2000/svg" xmlns:xlink="http://www.w3.org/1999/xlink" width="26" height="26" viewBox="0 0 26 26">
  <defs>
    <clipPath id="clip-path">
      <rect id="Rectangle_11" data-name="Rectangle 11" width="26" height="26" fill="#939393"/>
    </clipPath>
  </defs>
  <g id="Group_25208" data-name="Group 25208" clip-path="url(#clip-path)">
    <path id="Path_16" data-name="Path 16" d="M12.731,27.853a1.928,1.928,0,0,1-1.3-2.016c0-.82.036-1.64-.022-2.459a3.749,3.749,0,0,0-1.5-2.693,7.461,7.461,0,0,1-2.755-4.767A7.385,7.385,0,0,1,8.865,9.854,7.429,7.429,0,0,1,14.017,7.1a7.664,7.664,0,0,1,6.253,12.936c-.24.242-.509.455-.77.675A3.963,3.963,0,0,0,18.031,23.8c-.014.709-.033,1.42,0,2.126a1.783,1.783,0,0,1-1.307,1.929Zm2-4.413h1.922c.136,0,.246-.009.269-.192a5.41,5.41,0,0,1,1.994-3.55,6.231,6.231,0,0,0,2.26-5.962,6.446,6.446,0,0,0-7.412-5.455A6.663,6.663,0,0,0,8.225,15.1a6.326,6.326,0,0,0,2.447,4.738,4.679,4.679,0,0,1,1.874,3.37c.015.187.113.24.288.239.632-.005,1.264,0,1.9,0m.028,1.151h-1.92c-.122,0-.253-.011-.252.169,0,.495-.011.991.02,1.483a.463.463,0,0,0,.523.475q1.612,0,3.225,0a.458.458,0,0,0,.52-.521c.008-.452,0-.9.006-1.356,0-.189-.067-.254-.255-.251-.622.008-1.245,0-1.868,0" transform="translate(-1.609 -1.611)" fill="#939393"/>
    <path id="Path_17" data-name="Path 17" d="M17.085,0a.719.719,0,0,1,.323.655c-.008.675,0,1.349,0,2.024,0,.387-.2.6-.536.617a.526.526,0,0,1-.609-.541c-.014-.743-.007-1.485,0-2.228A.641.641,0,0,1,16.573,0Z" transform="translate(-3.708)" fill="#939393"/>
    <path id="Path_18" data-name="Path 18" d="M0,16.572a.719.719,0,0,1,.655-.323c.675.008,1.349,0,2.024,0,.387,0,.6.2.617.536a.526.526,0,0,1-.541.609c-.743.014-1.485.007-2.228,0A.641.641,0,0,1,0,17.085Z" transform="translate(0 -3.707)" fill="#939393"/>
    <path id="Path_19" data-name="Path 19" d="M33.025,17.085a.72.72,0,0,1-.655.323c-.675-.008-1.349,0-2.024,0-.387,0-.6-.2-.617-.537a.526.526,0,0,1,.54-.608c.743-.014,1.486-.007,2.229,0a.641.641,0,0,1,.527.316Z" transform="translate(-6.783 -3.708)" fill="#939393"/>
    <path id="Path_20" data-name="Path 20" d="M6.761,7.443a.587.587,0,0,1-.428-.2c-.475-.513-.957-1.02-1.429-1.537a.569.569,0,1,1,.819-.786c.495.482.981.973,1.466,1.466a.529.529,0,0,1,.142.651.623.623,0,0,1-.569.406" transform="translate(-1.074 -1.074)" fill="#939393"/>
    <path id="Path_21" data-name="Path 21" d="M27.868,28.452a.755.755,0,0,1-.582-.218c-.453-.463-.916-.916-1.372-1.377A.567.567,0,0,1,25.847,26a.56.56,0,0,1,.858.041q.721.707,1.429,1.428a.562.562,0,0,1,.149.716c-.093.186-.225.3-.416.266" transform="translate(-5.86 -5.891)" fill="#939393"/>
    <path id="Path_22" data-name="Path 22" d="M26.293,7.474a.531.531,0,0,1-.553-.275.508.508,0,0,1,.087-.616c.518-.531,1.039-1.059,1.574-1.572a.521.521,0,0,1,.777.019.522.522,0,0,1,.014.777c-.489.511-.994,1.007-1.5,1.5a.607.607,0,0,1-.4.164" transform="translate(-5.858 -1.106)" fill="#939393"/>
    <path id="Path_23" data-name="Path 23" d="M5.278,28.449a.533.533,0,0,1-.384-.935C5.4,27,5.9,26.493,6.416,26a.564.564,0,1,1,.791.8c-.492.509-1,1-1.5,1.505a.54.54,0,0,1-.429.145" transform="translate(-1.074 -5.891)" fill="#939393"/>
    <path id="Path_24" data-name="Path 24" d="M17.057,10.6a4.928,4.928,0,0,1,4.659,4.145,4.587,4.587,0,0,1,.049.841.563.563,0,0,1-1.1.121c-.057-.282-.059-.576-.107-.861a3.826,3.826,0,0,0-3.54-3.093.761.761,0,0,1-.631-.218.573.573,0,0,1-.073-.627A.5.5,0,0,1,16.8,10.6h.256" transform="translate(-3.708 -2.42)" fill="#939393"/>
  </g>
</svg>
