<svg xmlns="http://www.w3.org/2000/svg" width="24.23" height="22.814" viewBox="0 0 24.23 22.814">
  <path id="Union_2" data-name="Union 2" d="M-4135.187,22.614c-.033-.01-.068-.023-.1-.03a2.33,2.33,0,0,1-1.944-2.381c0-.355-.009-.711,0-1.066.007-.217-.073-.3-.293-.3-.524.009-1.047,0-1.571,0a1.737,1.737,0,0,1-1.9-1.294V1.28A1.756,1.756,0,0,1-4139.613,0h13.28c.033.012.066.027.1.037a1.636,1.636,0,0,1,1.258,1.591c.022.327.005.658.025.985.022.368-.164.83.087,1.079.158.156.415.127.675.1a2.071,2.071,0,0,1,.38-.02c.06,0,.12,0,.182,0,.046,0,.091,0,.137,0a2.343,2.343,0,0,1,2.3,2.222c.059.942.015,1.883.025,2.825a.95.95,0,0,0,.146.527,5.281,5.281,0,0,1,.79,3.819.4.4,0,0,0,.166.433c.719.551,1.439,1.1,2.142,1.674a2.193,2.193,0,0,1,.339,3.136,1.939,1.939,0,0,1-2.617.491c-.256-.156-.486-.356-.73-.533-.055-.039-.106-.12-.182-.083s-.051.125-.051.193c0,.524,0,1.048,0,1.572a2.5,2.5,0,0,1-.77,1.944,2.67,2.67,0,0,1-1.251.617Zm11.567-.92a1.434,1.434,0,0,0,1.533-1.534c0-.685-.033-1.371.013-2.051a1.02,1.02,0,0,0-.524-1.057.4.4,0,0,0-.458-.029,4.866,4.866,0,0,1-1.745.54.312.312,0,0,0-.284.2,1.7,1.7,0,0,1-1.733,1.077c-.844,0-1.688,0-2.532,0h-6.637c-.335,0-.349.015-.35.342s-.006.64,0,.959a1.45,1.45,0,0,0,1.574,1.552q2.772,0,5.543,0Q-4126.417,21.7-4123.62,21.694Zm2.92-7.077a4.692,4.692,0,0,1-1.173,1.567c-.151.131-.112.2.021.3.661.51,1.317,1.028,1.976,1.541a1.117,1.117,0,0,0,.716.251,1.1,1.1,0,0,0,.909-.473,1.3,1.3,0,0,0-.264-1.831c-.607-.492-1.234-.959-1.841-1.452a.307.307,0,0,0-.173-.087C-4120.6,14.437-4120.646,14.5-4120.7,14.617ZM-4139.3.92c-.044,0-.089,0-.133,0a.7.7,0,0,0-.63.5,1.45,1.45,0,0,0-.059.5q0,3.746,0,7.492,0,3.719,0,7.439c0,.828.228,1.055,1.063,1.055h12.292a.889.889,0,0,0,.538-.112c.057-.039.144-.072.129-.153s-.11-.068-.178-.078A5.126,5.126,0,0,1-4130.546,14a5.044,5.044,0,0,1,1.173-5.45,5.191,5.191,0,0,1,3.225-1.611c.192-.025.28-.09.28-.3-.007-1.636,0-3.271-.007-4.906a.748.748,0,0,0-.816-.812H-4139.3Zm9.361,11.419a4.373,4.373,0,0,0,4.369,4.349,4.422,4.422,0,0,0,4.514-4.421,4.5,4.5,0,0,0-4.416-4.46A4.447,4.447,0,0,0-4129.942,12.339Zm4.989-7.354c0,.559,0,1.119,0,1.678,0,.194.083.284.282.31a5.142,5.142,0,0,1,1.5.459,7.366,7.366,0,0,1,1.089.68V7.786c0-.586.029-1.174-.013-1.758a1.4,1.4,0,0,0-1.441-1.32c-.175,0-.348,0-.523,0-.2,0-.4,0-.6,0h-.015C-4124.865,4.7-4124.954,4.785-4124.953,4.985Zm-12.87,8.682h-.027c-.418,0-.652-.171-.652-.467s.236-.464.654-.465q1.451,0,2.9,0h2.824a1.413,1.413,0,0,1,.318.024.423.423,0,0,1,.365.428.428.428,0,0,1-.367.455,1.234,1.234,0,0,1-.291.023h-5.728Zm.095-3.976a2.513,2.513,0,0,1-.451-.033.421.421,0,0,1-.358-.433.444.444,0,0,1,.384-.443,1.744,1.744,0,0,1,.266-.009h5.833c.438,0,.657.147.666.441s-.217.475-.666.477c-.969.006-1.936,0-2.9,0h-1.583Zm9.516-3.6h-9.567a1.7,1.7,0,0,1-.318-.019.452.452,0,0,1-.394-.44.458.458,0,0,1,.4-.458,2.131,2.131,0,0,1,.346-.015h9.433c.1,0,.2,0,.294,0a.488.488,0,0,1,.514.468.493.493,0,0,1-.524.458c-.042,0-.083,0-.125,0Z" transform="translate(4141.1 0.1)" fill="#939393" stroke="#939393" stroke-width="0.2"/>
</svg>
