<svg xmlns="http://www.w3.org/2000/svg" width="24.2" height="24.2" viewBox="0 0 24.2 24.2">
  <path id="Union_3" data-name="Union 3" d="M-4129.931,24a1.015,1.015,0,0,0-.125-.03,9.41,9.41,0,0,1-5.439-2.51.683.683,0,0,0-.509-.192q-1.268,0-2.537,0h-1.856A.627.627,0,0,1-4141,21V10.914c.032-.23.055-.461.1-.688a11.914,11.914,0,0,1,8.222-9.674A12.659,12.659,0,0,1-4130.035,0h2.069c.416.063.837.1,1.248.194a11.891,11.891,0,0,1,9.105,7.929,12.373,12.373,0,0,1,.613,2.843V21a.628.628,0,0,1-.6.271h-1.562c-.918,0-1.835,0-2.753-.005a.858.858,0,0,0-.645.246,9.348,9.348,0,0,1-3.2,1.951,11.55,11.55,0,0,1-2.308.537Zm-7.687-8.784c.017.171.033.343.059.513a8.515,8.515,0,0,0,8.481,7.29,8.664,8.664,0,0,0,1.263-.078,8.633,8.633,0,0,0,7.357-9.466,8.194,8.194,0,0,0-3.7-6.132c-.278-.194-.28-.189-.377.135a10.561,10.561,0,0,1-6.58,7.143,9.9,9.9,0,0,1-4.23.666,11.548,11.548,0,0,1-2.017-.285.5.5,0,0,0-.114-.016C-4137.594,14.988-4137.634,15.063-4137.618,15.217Zm13.21-13.06a10.857,10.857,0,0,1,.284,2.535,11.7,11.7,0,0,1-.1,1.26.412.412,0,0,0,.229.442,9.324,9.324,0,0,1,3.166,3.2,9.75,9.75,0,0,1,1.354,4.3,9.423,9.423,0,0,1-1.815,6.225c-.047.066-.151.128-.1.216.028.05.094.043.157.037a.565.565,0,0,1,.062,0q1.46,0,2.921,0c.406,0,.406,0,.406-.4q0-3.916,0-7.833a11.136,11.136,0,0,0-.112-1.623,11.064,11.064,0,0,0-4.39-7.432,10.043,10.043,0,0,0-2.113-1.23C-4124.438,1.99-4124.426,2.074-4124.408,2.157Zm-5.9-1.219a10.859,10.859,0,0,0-6.06,2.713,11.055,11.055,0,0,0-3.781,8.492c-.012,1.249,0,2.5,0,3.748,0,1.387,0,2.775,0,4.162,0,.235.073.319.313.316.73-.007,1.461-.006,2.192,0h.858l.1,0c.093,0,.133-.038.071-.127-.034-.049-.072-.1-.107-.145a9.414,9.414,0,0,1-1.81-5.713.446.446,0,0,1,.615-.472c.058.014.116.034.173.052a9.631,9.631,0,0,0,4.849.245,9.834,9.834,0,0,0,7.479-12.465.57.57,0,0,0-.442-.437A11.594,11.594,0,0,0-4129,.857,10.733,10.733,0,0,0-4130.31.937Zm.479,19.551a10.5,10.5,0,0,1-3.72-.913.459.459,0,0,0-.614.074.418.418,0,0,1-.546.065.412.412,0,0,1-.2-.444.467.467,0,0,1,.167-.284c.366-.328.728-.66,1.1-.98a.453.453,0,0,1,.632-.01.412.412,0,0,1,.012.6c-.151.183-.046.222.1.281a9.819,9.819,0,0,0,3.731.711,10.207,10.207,0,0,0,4.22-.874c.278-.121.277-.123.094-.367a.457.457,0,0,1,.028-.668.432.432,0,0,1,.642.079c.345.385.682.778,1.012,1.175a.427.427,0,0,1-.019.626.432.432,0,0,1-.641-.06c-.16-.2-.3-.187-.508-.086a10.976,10.976,0,0,1-4.792,1.091Q-4129.477,20.51-4129.831,20.489Zm4.072-4.184a2.25,2.25,0,0,1-2.223-2.253,2.251,2.251,0,0,1,2.235-2.214,2.264,2.264,0,0,1,2.226,2.255,2.256,2.256,0,0,1-2.224,2.212Zm-1.319-2.226a1.3,1.3,0,0,0,1.323,1.323,1.323,1.323,0,0,0,1.339-1.317,1.339,1.339,0,0,0-1.347-1.343A1.319,1.319,0,0,0-4127.077,14.079Z" transform="translate(4141.1 0.1)" fill="#939393" stroke="#939393" stroke-width="0.2"/>
</svg>
