<svg xmlns="http://www.w3.org/2000/svg" xmlns:xlink="http://www.w3.org/1999/xlink" width="105.273" height="105.577" viewBox="0 0 105.273 105.577">
  <defs>
    <filter id="Union_5" x="0" y="0" width="105.273" height="105.577" filterUnits="userSpaceOnUse">
      <feOffset input="SourceAlpha"/>
      <feGaussianBlur stdDeviation="3" result="blur"/>
      <feFlood flood-opacity="0.2"/>
      <feComposite operator="in" in2="blur"/>
      <feComposite in="SourceGraphic"/>
    </filter>
  </defs>
  <g id="Group_25230" data-name="Group 25230" transform="translate(-1671 -902.423)">
    <g id="Group_25227" data-name="Group 25227" transform="translate(1680 911.423)">
      <path id="Path_45" data-name="Path 45" d="M39.409,0a39.409,39.409,0,0,1,0,78.818,41.326,41.326,0,0,1-10.886-1.542c-5.5-1.378-17.5,2.6-23.234-2.823-1.809-1.67,2.171-11.837,0-15.311A38.015,38.015,0,0,1,0,39.409,39.409,39.409,0,0,1,39.409,0Z" transform="translate(3.827 3.775)"/>
      <g transform="matrix(1, 0, 0, 1, -9, -9)" filter="url(#Union_5)">
        <path id="Union_5-2" data-name="Union 5" d="M.548,87.551C.374,87.462.072,87.76,0,87.37Q2.991,76.516,5.993,65.664a1.612,1.612,0,0,0-.252-1.284A42.425,42.425,0,0,1,.847,37.262,42.105,42.105,0,0,1,18.317,8.446C28.827.822,40.656-1.79,53.278,1.221c17.209,4.1,28.089,15.053,32.785,32.086a47.572,47.572,0,0,1,1.21,7.88v4.545c-.211,1.983-.375,3.971-.768,5.93A42.507,42.507,0,0,1,73.1,75.478,42.652,42.652,0,0,1,39.424,86.65a41.772,41.772,0,0,1-15.678-4.687,1.7,1.7,0,0,0-1.3-.176Q11.5,84.678.548,87.551m43.732-8.214a23.677,23.677,0,0,0,3.625-.242,28.611,28.611,0,0,0,3.228-.525A35.874,35.874,0,0,0,79.323,38.115,34.367,34.367,0,0,0,69.6,18.588C61.061,9.974,50.673,6.441,38.682,8.058A34.408,34.408,0,0,0,16.2,20.68,34.95,34.95,0,0,0,8.133,47.332a34.545,34.545,0,0,0,5.643,15.757,2.077,2.077,0,0,1,.265,1.872c-1.01,3.583-1.988,7.177-2.974,10.767-.342,1.241-.259,1.321,1.012.988,3.7-.967,7.4-1.914,11.085-2.919a2.314,2.314,0,0,1,1.97.285,36.4,36.4,0,0,0,19.146,5.255" transform="translate(9 9)" fill="#fff"/>
      </g>
    </g>
    <g id="Group_25229" data-name="Group 25229" transform="translate(1704.484 928.1)">
      <path id="Path_1" data-name="Path 1" d="M8.05,63.008H9.362a.387.387,0,0,0,.12.065,9.369,9.369,0,0,1,2.972.919,23.224,23.224,0,0,1,5.026,3.432c.54.465,1.07.941,1.6,1.412.532.638,1.127,1.216,1.717,1.8l.8.8c.291.254.579.512.874.761a29.951,29.951,0,0,0,4.01,3.051,7.954,7.954,0,0,0,2.308,1.012,8.638,8.638,0,0,0,3.962.112c.318-.073.643-.123.953-.222a5.328,5.328,0,0,0,3.784-3.252c.01-.029.049-.048.074-.071-.015.119-.022.24-.047.358A8.274,8.274,0,0,1,25.69,78.915a26.794,26.794,0,0,1-5.823-4.13,5.592,5.592,0,0,0-.843-.737,5.806,5.806,0,0,0-.835-.874q-.8-.9-1.674-1.724a19.237,19.237,0,0,0-2.075-1.864,13.5,13.5,0,0,0-5.221-2.951c-.1-.112-.235-.11-.362-.135a9.076,9.076,0,0,0-3.109-.058,7.469,7.469,0,0,0-3.027,1.045c-.053.029-.108.054-.159.086A5.052,5.052,0,0,0,.631,69.865c-.067-.048-.073-.1-.05-.185a8.4,8.4,0,0,1,6.633-6.489,2.791,2.791,0,0,0,.837-.183" transform="translate(-0.398 -52.159)" fill="#fe7490"/>
      <path id="Path_2" data-name="Path 2" d="M83,63.008a4.321,4.321,0,0,0,.981.2,8.439,8.439,0,0,1,6.743,8.583,6.255,6.255,0,0,0-.146,1.033c-.025.023-.064.042-.074.071a5.328,5.328,0,0,1-3.784,3.252c-.31.1-.635.149-.953.222a1.122,1.122,0,0,1,.1-.1,5.864,5.864,0,0,0,2.439-4.4,6,6,0,0,0-3.279-5.782,6.1,6.1,0,0,0-3.6-.595c-.658-.1-1.3-.272-1.972-.309a12.021,12.021,0,0,0-3.282.3,13.055,13.055,0,0,1,4.927-2.332,1.368,1.368,0,0,0,.585-.147Z" transform="translate(-53.417 -52.159)" fill="#55d8f0"/>
      <path id="Path_3" data-name="Path 3" d="M14.428,87.978A11.033,11.033,0,0,1,9.058,90.3,8.332,8.332,0,0,1,.589,85.036a9.074,9.074,0,0,1-.508-1.888C.071,83.082.091,83,0,82.966V81l.232-.63a5.051,5.051,0,0,1,1.931-2.294c.051-.032.106-.058.159-.086a.625.625,0,0,1-.153.362,6.816,6.816,0,0,0-.9,4.439,6.989,6.989,0,0,0,4.423,5.8,6.245,6.245,0,0,0,3.447.485,10.033,10.033,0,0,0,2.579-.85L11.8,88.2a9.914,9.914,0,0,0,1.446-.054,6.6,6.6,0,0,1,1.178-.17" transform="translate(0 -62.666)" fill="#02c5f3"/>
      <path id="Path_4" data-name="Path 4" d="M11.643,74.44a5.162,5.162,0,0,0-2.8.646,4.813,4.813,0,0,0-1.188,7.365,10.061,10.061,0,0,1,.861.867,7.864,7.864,0,0,0,1.5,1,10.562,10.562,0,0,0,4.52,1.21,10.012,10.012,0,0,1-2.579.85A6.245,6.245,0,0,1,8.514,85.9a6.989,6.989,0,0,1-4.423-5.8,6.816,6.816,0,0,1,.9-4.439.625.625,0,0,0,.153-.362,7.466,7.466,0,0,1,3.027-1.045,9.077,9.077,0,0,1,3.109.058c.127.025.267.023.362.135" transform="translate(-2.824 -59.965)" fill="#55d8f0"/>
      <path id="Path_5" data-name="Path 5" d="M25.081,97.532a10.559,10.559,0,0,1-4.52-1.21,7.853,7.853,0,0,1-1.5-1,.513.513,0,0,1,.278.056,4.625,4.625,0,0,0,5.023-.173A30.79,30.79,0,0,0,28.4,92.176c.362-.3.72-.613,1.079-.919q.873.827,1.674,1.724a32.216,32.216,0,0,1-3.382,2.888A26.784,26.784,0,0,1,25.168,97.5l-.087.028" transform="translate(-13.364 -71.967)" fill="#54cf74"/>
      <path id="Path_6" data-name="Path 6" d="M62.532,73.9a33.885,33.885,0,0,1,3.708-3.126c.117-.084.247-.149.37-.224a12.029,12.029,0,0,1,3.282-.3c.669.037,1.314.21,1.971.309,0,.017,0,.035,0,.052a5.559,5.559,0,0,0-1.646.56,23.278,23.278,0,0,0-5.833,4.285.371.371,0,0,0-.14.246c-.59-.583-1.185-1.161-1.717-1.8" transform="translate(-43.847 -57.226)" fill="#54cf74"/>
      <path id="Path_7" data-name="Path 7" d="M93.766,71.244c0-.018,0-.035,0-.052a6.1,6.1,0,0,1,3.6.595,6,6,0,0,1,3.279,5.782,5.864,5.864,0,0,1-2.439,4.4,1.121,1.121,0,0,0-.1.1,8.638,8.638,0,0,1-3.962-.112A7.763,7.763,0,0,0,96,81.732a4.78,4.78,0,0,0,2.029-7.963c-.227-.226-.4-.52-.727-.639a.287.287,0,0,0-.142-.238,9.157,9.157,0,0,0-3.39-1.648" transform="translate(-65.745 -57.859)" fill="#02c5f3"/>
      <path id="Path_8" data-name="Path 8" d="M75.9,71.5a9.157,9.157,0,0,1,3.39,1.648.287.287,0,0,1,.142.238,4.642,4.642,0,0,0-3.292-.714,7.281,7.281,0,0,0-2.268.95,26.105,26.105,0,0,0-4.795,3.763l-.8-.8a.371.371,0,0,1,.14-.246,23.278,23.278,0,0,1,5.833-4.285A5.56,5.56,0,0,1,75.9,71.5" transform="translate(-47.876 -58.111)" fill="#02c179"/>
      <path id="Path_9" data-name="Path 9" d="M39.5,101.55a26.746,26.746,0,0,0,2.6-1.635,32.211,32.211,0,0,0,3.382-2.887,5.778,5.778,0,0,1,.835.874,33.174,33.174,0,0,1-3.782,3.172c-.1.069-.2.125-.307.186l-.111.069,0,0a6.658,6.658,0,0,0-1.178.17,9.914,9.914,0,0,1-1.446.054" transform="translate(-27.699 -76.014)" fill="#02c179"/>
      <path id="Path_10" data-name="Path 10" d="M48.278,111.261l.111-.069-.111.069" transform="translate(-33.852 -85.946)" fill="#02c5f3"/>
      <path id="Path_11" data-name="Path 11" d="M42.118,36.541a.818.818,0,0,1-.723-.433,14.666,14.666,0,0,0-25.889,0,.818.818,0,0,1-1.444-.77,16.3,16.3,0,0,1,28.777,0,.819.819,0,0,1-.721,1.2" transform="translate(-9.793 -26.7)" fill="#b7b7b7"/>
    </g>
    <text id="Join_On_WhatsApp" data-name="Join On
WhatsApp" transform="translate(1723.142 968.821)" fill="#fff" font-size="9" font-family="Red Hat Display" font-weight="700"><tspan x="-16" y="0">Join On</tspan><tspan x="-22" y="9">WhatsApp</tspan></text>
  </g>
</svg>
