<svg xmlns="http://www.w3.org/2000/svg" width="10.844" height="10.665" viewBox="0 0 10.844 10.665">
  <path id="Union_6" data-name="Union 6" d="M7.263,10.662c-.2,0-.408-.005-.613,0-.409.006-.821,0-1.23,0h-1c-.557,0-1.114,0-1.671,0A2.675,2.675,0,0,1,.057,8.74,2.452,2.452,0,0,1,2.415,5.905c.166-.015.331-.022.5-.022,1.718,0,3.436-.005,5.154,0a2.824,2.824,0,0,1,2.305,1.049,2.346,2.346,0,0,1-1.9,3.7c-.263.025-.527.032-.791.032C7.538,10.665,7.4,10.663,7.263,10.662ZM2.368,3.018A2.733,2.733,0,0,1,4.848.026c.04-.007.08-.017.121-.026h.856A3.561,3.561,0,0,1,7.31.567,2.491,2.491,0,0,1,8.345,3.389,2.969,2.969,0,0,1,5.778,5.308q-.186.018-.37.018A2.929,2.929,0,0,1,2.368,3.018Z" fill="#fff"/>
</svg>
