<svg xmlns="http://www.w3.org/2000/svg" width="18.47" height="20.733" viewBox="0 0 18.47 20.733">
  <path id="Union_1" data-name="Union 1" d="M-4128.795,20.526c-.344-.006-.687-.011-1.032,0-.689.011-1.378,0-2.068,0-1.5,0-2.995.007-4.493,0a4.6,4.6,0,0,1-4.519-3.7,4.6,4.6,0,0,1,3.963-5.457,7.709,7.709,0,0,1,.836-.044l2.692,0c1.988,0,3.976,0,5.965.007a4.526,4.526,0,0,1,3.875,2.019,4.6,4.6,0,0,1-3.2,7.122,12.142,12.142,0,0,1-1.328.061C-4128.333,20.533-4128.563,20.529-4128.795,20.526Zm-4.624-8.213-2.618,0a7.1,7.1,0,0,0-.866.049,3.622,3.622,0,0,0-3.1,3.411,3.617,3.617,0,0,0,3.666,3.758q2.219,0,4.436,0h4.315a5.364,5.364,0,0,0,.716-.046,3.592,3.592,0,0,0,2.569-5.438,3.522,3.522,0,0,0-3.162-1.73q-1.94-.009-3.881-.007Zm-3.6-6.5a5.124,5.124,0,0,1,4.165-5.761c.068-.013.135-.033.2-.049h1.439a5.562,5.562,0,0,1,2.5,1.091,5.163,5.163,0,0,1,1.739,5.435,5.133,5.133,0,0,1-4.312,3.693,5.51,5.51,0,0,1-.623.036A5.092,5.092,0,0,1-4137.019,5.81Zm.953-.7a4.13,4.13,0,0,0,4.131,4.17,4.148,4.148,0,0,0,4.172-4.178,4.133,4.133,0,0,0-4.149-4.129h-.007A4.106,4.106,0,0,0-4136.066,5.106Z" transform="translate(4141.11 0.1)" fill="#FFFFFF" stroke="#FFFFFF" stroke-width="0.2"/>
</svg>
