<svg id="Group_25331" data-name="Group 25331" xmlns="http://www.w3.org/2000/svg" xmlns:xlink="http://www.w3.org/1999/xlink" width="13.483" height="15.478" viewBox="0 0 13.483 15.478">
  <defs>
    <clipPath id="clip-path">
      <rect id="Rectangle_33" data-name="Rectangle 33" width="13.483" height="15.478" fill="none"/>
    </clipPath>
  </defs>
  <g id="Group_25330" data-name="Group 25330" clip-path="url(#clip-path)">
    <path id="Path_78" data-name="Path 78" d="M9.462,0A.786.786,0,0,1,10,.637a.74.74,0,0,1-.661.822c-.07,0-.141,0-.211,0h-6.6a.983.983,0,0,0-.984.612,1.257,1.257,0,0,0-.073.475q0,5.19,0,10.379a.987.987,0,0,0,.6,1.008,1.208,1.208,0,0,0,.488.08H9.245a.721.721,0,0,1,.75.644.743.743,0,0,1-.4.752c-.045.023-.091.043-.136.065H2.056l-.218-.055A2.428,2.428,0,0,1,.51,14.566,2.613,2.613,0,0,1,0,13.392V2.086c.008-.034.017-.068.024-.1A2.45,2.45,0,0,1,1,.445,2.729,2.729,0,0,1,2.056,0Z"/>
    <path id="Path_79" data-name="Path 79" d="M67.71,50.09a1.225,1.225,0,0,1-.312.456q-1.654,1.648-3.3,3.3a.747.747,0,0,1-1.069.049.737.737,0,0,1,.012-1.089q.97-.975,1.945-1.945c.06-.06.129-.111.207-.177a.275.275,0,0,0-.2-.039l-5.455,0a.735.735,0,0,1-.046-1.47c.514-.005,1.028,0,1.541,0h4.126c-.01-.076-.064-.1-.1-.14C64.38,48.355,63.7,47.681,63.027,47a.74.74,0,0,1,.214-1.228.733.733,0,0,1,.821.167c.256.25.507.5.76.758q1.288,1.287,2.576,2.574a1.22,1.22,0,0,1,.312.456Z" transform="translate(-54.227 -42.17)"/>
  </g>
</svg>
