<svg xmlns="http://www.w3.org/2000/svg" xmlns:xlink="http://www.w3.org/1999/xlink" width="98.18" height="99.254" viewBox="0 0 98.18 99.254">
  <defs>
    <clipPath id="clip-path">
      <rect id="Rectangle_13" data-name="Rectangle 13" width="18.089" height="6.419"/>
    </clipPath>
  </defs>
  <g id="Group_25235" data-name="Group 25235" transform="translate(-910.91 -101.846)">
    <g id="Group_25233" data-name="Group 25233">
      <path id="Path_1" data-name="Path 1" d="M19.179,63.008h3.263a.964.964,0,0,0,.3.161,23.306,23.306,0,0,1,7.392,2.287,57.77,57.77,0,0,1,12.5,8.537c1.343,1.156,2.661,2.341,3.99,3.513,1.323,1.588,2.8,3.024,4.271,4.475l1.982,1.979c.724.631,1.44,1.273,2.173,1.893a74.5,74.5,0,0,0,9.974,7.59,19.787,19.787,0,0,0,5.741,2.518,21.486,21.486,0,0,0,9.857.278c.791-.181,1.6-.307,2.37-.552,4.285-1.359,7.813-3.612,9.414-8.09.025-.072.121-.119.184-.177-.038.3-.056.6-.116.89-2.544,12.31-16.469,20.83-29.416,14.266A66.649,66.649,0,0,1,48.573,92.3a13.909,13.909,0,0,0-2.1-1.834A14.442,14.442,0,0,0,44.4,88.294Q42.408,86.063,40.235,84a47.846,47.846,0,0,0-5.162-4.637c-3.93-3.14-7.949-6.144-12.988-7.34-.236-.279-.584-.274-.9-.336a22.579,22.579,0,0,0-7.733-.145,18.579,18.579,0,0,0-7.529,2.6c-.132.071-.268.135-.4.215a12.567,12.567,0,0,0-4.8,5.7C.556,79.945.542,79.816.6,79.6c2.283-8.656,7.714-14.1,16.5-16.143a6.944,6.944,0,0,0,2.082-.454" transform="translate(913.854 65.824)" fill="#fe7490"/>
      <path id="Path_2" data-name="Path 2" d="M93.153,63.008a10.749,10.749,0,0,0,2.439.492,20.992,20.992,0,0,1,16.774,21.351A15.559,15.559,0,0,0,112,87.42c-.063.058-.159.1-.184.177-1.6,4.478-5.129,6.73-9.414,8.09-.771.245-1.579.371-2.37.552a2.79,2.79,0,0,1,.258-.248,14.587,14.587,0,0,0,6.067-10.94A14.915,14.915,0,0,0,98.2,70.667a15.165,15.165,0,0,0-8.954-1.48c-1.636-.246-3.239-.676-4.9-.769a29.9,29.9,0,0,0-8.164.755,32.474,32.474,0,0,1,12.255-5.8,3.4,3.4,0,0,0,1.455-.365Z" transform="translate(894.443 65.824)" fill="#55d8f0"/>
      <path id="Path_3" data-name="Path 3" d="M35.89,102.832c-4.038,2.882-8.327,5.314-13.359,5.773A20.726,20.726,0,0,1,1.466,95.514,22.572,22.572,0,0,1,.2,90.818c-.028-.167.022-.373-.2-.455V85.481q.29-.784.578-1.568a12.565,12.565,0,0,1,4.8-5.705c.127-.079.263-.143.4-.215a1.555,1.555,0,0,1-.38.9A16.955,16.955,0,0,0,3.154,89.934a17.384,17.384,0,0,0,11,14.437,15.534,15.534,0,0,0,8.574,1.206,24.957,24.957,0,0,0,6.415-2.115l.217-.07a24.66,24.66,0,0,0,3.6-.135,16.43,16.43,0,0,1,2.931-.424" transform="translate(914 61.977)" fill="#02c5f3"/>
      <path id="Path_4" data-name="Path 4" d="M22.973,74.886a12.841,12.841,0,0,0-6.959,1.606,11.972,11.972,0,0,0-2.956,18.321A25.027,25.027,0,0,1,15.2,96.968a19.563,19.563,0,0,0,3.737,2.491,26.273,26.273,0,0,0,11.243,3.011,24.905,24.905,0,0,1-6.416,2.115,15.535,15.535,0,0,1-8.574-1.2,17.386,17.386,0,0,1-11-14.437A16.955,16.955,0,0,1,6.431,77.9a1.556,1.556,0,0,0,.381-.9,18.571,18.571,0,0,1,7.529-2.6,22.578,22.578,0,0,1,7.733.144c.315.062.663.057.9.337" transform="translate(912.966 62.966)" fill="#55d8f0"/>
      <path id="Path_5" data-name="Path 5" d="M34.038,106.865A26.266,26.266,0,0,1,22.8,103.854a19.535,19.535,0,0,1-3.736-2.491,1.276,1.276,0,0,1,.693.139c4.255,2.482,8.386,2.01,12.5-.43A76.592,76.592,0,0,0,42.3,93.543c.9-.757,1.79-1.524,2.684-2.286q2.172,2.058,4.165,4.289a80.137,80.137,0,0,1-8.412,7.183,66.628,66.628,0,0,1-6.481,4.066l-.216.07" transform="translate(909.107 58.572)" fill="#54cf74"/>
      <path id="Path_6" data-name="Path 6" d="M62.532,79.361a84.288,84.288,0,0,1,9.225-7.777c.29-.21.613-.372.92-.556a29.921,29.921,0,0,1,8.163-.754c1.665.093,3.268.523,4.9.769,0,.043.008.086.012.13a13.829,13.829,0,0,0-4.095,1.393C76.151,75.2,71.55,79.078,67.152,83.225a.924.924,0,0,0-.349.611c-1.467-1.451-2.948-2.888-4.271-4.475" transform="translate(897.947 63.969)" fill="#54cf74"/>
      <path id="Path_7" data-name="Path 7" d="M93.773,71.4c0-.044-.008-.087-.012-.13a15.168,15.168,0,0,1,8.954,1.48,14.915,14.915,0,0,1,8.157,14.384,14.587,14.587,0,0,1-6.067,10.94,2.789,2.789,0,0,0-.258.248,21.487,21.487,0,0,1-9.857-.278,19.312,19.312,0,0,0,4.63-.554,11.89,11.89,0,0,0,5.046-19.808c-.566-.562-1-1.293-1.808-1.59a.715.715,0,0,0-.353-.592,22.779,22.779,0,0,0-8.432-4.1" transform="translate(889.93 63.738)" fill="#02c5f3"/>
      <path id="Path_8" data-name="Path 8" d="M87.231,71.5a22.779,22.779,0,0,1,8.432,4.1.714.714,0,0,1,.353.592c-2.54-1.463-5.212-2.364-8.189-1.775a18.112,18.112,0,0,0-5.641,2.364A64.936,64.936,0,0,0,70.26,86.139L68.278,84.16a.924.924,0,0,1,.349-.611c4.4-4.147,9-8.024,14.509-10.659A13.829,13.829,0,0,1,87.231,71.5" transform="translate(896.472 63.645)" fill="#02c179"/>
      <path id="Path_9" data-name="Path 9" d="M39.5,108.278a66.535,66.535,0,0,0,6.48-4.067A80.129,80.129,0,0,0,54.4,97.028,14.373,14.373,0,0,1,56.472,99.2a82.521,82.521,0,0,1-9.407,7.89c-.242.172-.508.31-.763.463l-.277.172.005-.01a16.566,16.566,0,0,0-2.931.424,24.66,24.66,0,0,1-3.6.135" transform="translate(903.859 57.091)" fill="#02c179"/>
      <path id="Path_10" data-name="Path 10" d="M48.278,111.364l.277-.172-.277.172" transform="translate(901.606 53.455)" fill="#02c5f3"/>
      <path id="Path_11" data-name="Path 11" d="M83.995,51.181A2.034,2.034,0,0,1,82.2,50.1a36.482,36.482,0,0,0-64.4,0,2.036,2.036,0,0,1-3.592-1.915,40.553,40.553,0,0,1,71.584,0,2.036,2.036,0,0,1-1.794,2.993" transform="translate(910.415 75.146)" fill="#b7b7b7"/>
    </g>
    <g id="Group_25234" data-name="Group 25234">
      <g id="Group_25220" data-name="Group 25220" transform="translate(950.059 177.268)">
        <g id="Group_25219" data-name="Group 25219" clip-path="url(#clip-path)">
          <path id="Path_41" data-name="Path 41" d="M0,5.111C1.849,1.094,4.891-1.033,7.538.927l.6.494C9.847,3.1,11.7,4.358,13.593,4.184c1.5-.107,2.962-1.2,4.275-2.925l.221.539C16.023,6.056,12.738,7.178,9.925,5.38a21.573,21.573,0,0,1-2.792-2.26C4.8,1.373,2.3,2.95.238,5.622L0,5.111" transform="translate(0 0.215)"/>
        </g>
      </g>
      <g id="Group_25221" data-name="Group 25221" transform="translate(972.059 177.268)">
        <g id="Group_25219-2" data-name="Group 25219" clip-path="url(#clip-path)">
          <path id="Path_41-2" data-name="Path 41" d="M0,5.111C1.849,1.094,4.891-1.033,7.538.927l.6.494C9.847,3.1,11.7,4.358,13.593,4.184c1.5-.107,2.962-1.2,4.275-2.925l.221.539C16.023,6.056,12.738,7.178,9.925,5.38a21.573,21.573,0,0,1-2.792-2.26C4.8,1.373,2.3,2.95.238,5.622L0,5.111" transform="translate(0 0.215)"/>
        </g>
      </g>
      <path id="Path_55" data-name="Path 55" d="M0,0H8" transform="translate(998.824 180.5)" fill="none" stroke="#000" stroke-linecap="round" stroke-width="2.3"/>
      <path id="Path_54" data-name="Path 54" d="M-48.99,0V-14h7.38a4.99,4.99,0,0,1,2.45.59,4.459,4.459,0,0,1,1.69,1.61,4.415,4.415,0,0,1,.62,2.34,4.252,4.252,0,0,1-.62,2.27,4.39,4.39,0,0,1-1.7,1.59,5.075,5.075,0,0,1-2.44.58h-3.94V0Zm3.44-7.86h3.54a1.691,1.691,0,0,0,1.22-.44,1.507,1.507,0,0,0,.46-1.14,1.564,1.564,0,0,0-.46-1.17,1.67,1.67,0,0,0-1.22-.45h-3.54ZM-27.89,0V-14h7.16a5.566,5.566,0,0,1,2.56.57,4.325,4.325,0,0,1,1.75,1.58,4.273,4.273,0,0,1,.63,2.31,4.047,4.047,0,0,1-.72,2.36,4.584,4.584,0,0,1-1.9,1.58L-15.35,0h-3.84l-2.64-5.1h-2.62V0Zm3.44-7.9h3.4a1.858,1.858,0,0,0,1.29-.44,1.461,1.461,0,0,0,.49-1.14,1.461,1.461,0,0,0-.49-1.14,1.858,1.858,0,0,0-1.29-.44h-3.4ZM-7.93,0l5.74-14H1.75L7.41,0H3.69L2.41-3.38H-3.05L-4.35,0Zm5.92-6.12h3.4L-.29-10.6ZM21.85.2a7.9,7.9,0,0,1-2.97-.55,7.378,7.378,0,0,1-2.39-1.53A7.036,7.036,0,0,1,14.9-4.17,7.015,7.015,0,0,1,14.33-7a7.065,7.065,0,0,1,.57-2.85,6.964,6.964,0,0,1,1.6-2.29,7.5,7.5,0,0,1,2.4-1.53,7.844,7.844,0,0,1,2.95-.55,7.808,7.808,0,0,1,2.28.34,8.239,8.239,0,0,1,2.07.95,6.157,6.157,0,0,1,1.59,1.45L25.47-9.2a4.97,4.97,0,0,0-1.65-1.4,4.3,4.3,0,0,0-1.97-.46,3.975,3.975,0,0,0-1.57.31,3.971,3.971,0,0,0-1.27.85,3.814,3.814,0,0,0-.84,1.28A4.272,4.272,0,0,0,17.87-7a4.026,4.026,0,0,0,.31,1.59,4.006,4.006,0,0,0,.86,1.28,3.824,3.824,0,0,0,1.3.85,4.349,4.349,0,0,0,1.63.3,4.128,4.128,0,0,0,1.89-.44,4.859,4.859,0,0,0,1.57-1.3L27.69-2.5a6.4,6.4,0,0,1-1.58,1.43,7.892,7.892,0,0,1-2.04.94A7.688,7.688,0,0,1,21.85.2ZM36.35,0V-14h3.44v5.38h5.76V-14h3.44V0H45.55V-5.48H39.79V0Z" transform="translate(960 200.8)" stroke="#000" stroke-width="0.2"/>
    </g>
  </g>
</svg>
