<svg xmlns="http://www.w3.org/2000/svg" width="17.871" height="19.133" viewBox="0 0 17.871 19.133">
  <path id="Union_7" data-name="Union 7" d="M-4129.465,18.527c-.325-.005-.65-.01-.975,0-.651.01-1.3,0-1.955,0-1.415,0-2.83.006-4.246,0a4.306,4.306,0,0,1-4.271-3.335,4.181,4.181,0,0,1,3.746-4.925,7.619,7.619,0,0,1,.791-.039h2.544c1.879,0,3.758,0,5.638.006a4.339,4.339,0,0,1,3.662,1.823,4.119,4.119,0,0,1-3.024,6.428,12.02,12.02,0,0,1-1.255.055C-4129.028,18.533-4129.246,18.53-4129.465,18.527Zm-4.37-7.413h-2.475a7.027,7.027,0,0,0-.818.044,3.331,3.331,0,0,0-2.934,3.078,3.34,3.34,0,0,0,3.465,3.392q2.1,0,4.193,0h4.078a5.3,5.3,0,0,0,.676-.041,3.22,3.22,0,0,0,2.428-4.908,3.368,3.368,0,0,0-2.988-1.561q-1.834-.008-3.668-.007Zm-3.4-5.869a4.657,4.657,0,0,1,3.937-5.2c.064-.012.128-.03.191-.044h1.36a5.382,5.382,0,0,1,2.359.985,4.54,4.54,0,0,1,1.644,4.905,4.792,4.792,0,0,1-4.076,3.333,5.447,5.447,0,0,1-.588.032A4.746,4.746,0,0,1-4137.237,5.244Zm.9-.636a3.817,3.817,0,0,0,3.9,3.764,3.837,3.837,0,0,0,3.943-3.771,3.822,3.822,0,0,0-3.922-3.727h-.006A3.8,3.8,0,0,0-4136.337,4.608Z" transform="translate(4141.311 0.3)" stroke="#000" stroke-width="0.6"/>
</svg>
