<svg xmlns="http://www.w3.org/2000/svg" width="23.15" height="20.9" viewBox="0 0 23.15 20.9">
  <g id="Group_6" data-name="Group 6" transform="translate(-1471.749 -119.75)">
    <path id="Path_13" data-name="Path 13" d="M22.649,13.7a3.49,3.49,0,0,1-1.075,2.03,3.258,3.258,0,0,1-2.242.9q-3.778.008-7.556,0a1.289,1.289,0,0,0-.629.159Q7.8,18.56,4.441,20.317c-.3.16-.561.081-.653-.188a.532.532,0,0,1,0-.282c.2-1,.392-1.992.6-2.986.038-.184-.005-.229-.187-.231a8.677,8.677,0,0,1-1.366-.04A3.393,3.393,0,0,1,.005,13.307q-.012-4.982,0-9.963a3.4,3.4,0,0,1,3-3.314c.05-.005.1-.02.151-.03H19.511a1.25,1.25,0,0,0,.129.029A3.387,3.387,0,0,1,21.6.944a3.605,3.605,0,0,1,1.047,1.973ZM4.731,19.245a1.222,1.222,0,0,0,.121-.044q3.01-1.585,6.018-3.175a1.474,1.474,0,0,1,.715-.18q3.757.01,7.513,0a2.613,2.613,0,0,0,2.548-1.573,2.97,2.97,0,0,0,.232-1.294q0-4.485,0-8.97c0-.265-.006-.529-.027-.794A2.591,2.591,0,0,0,19.289.81Q11.334.8,3.379.81A2.6,2.6,0,0,0,.84,2.975a4.668,4.668,0,0,0-.05.748q0,4.418,0,8.837c0,.3.005.6.028.9a2.6,2.6,0,0,0,2.312,2.353c.581.053,1.162.016,1.744.033a.4.4,0,0,1,.429.52c-.049.283-.108.563-.164.845-.132.663-.265,1.326-.4,2.029" transform="translate(1472 120)" fill="#727272" stroke="#727272" stroke-width="0.5"/>
    <g id="Group_5" data-name="Group 5" transform="translate(1479.158 124.951)">
      <line id="Line_1" data-name="Line 1" y2="7.108" transform="translate(3.554)" fill="none" stroke="#727272" stroke-linecap="round" stroke-width="1.5"/>
      <line id="Line_2" data-name="Line 2" y2="7.108" transform="translate(7.108 3.554) rotate(90)" fill="none" stroke="#727272" stroke-linecap="round" stroke-width="1.5"/>
    </g>
  </g>
</svg>
