<svg xmlns="http://www.w3.org/2000/svg" width="15.975" height="17.465" viewBox="0 0 15.975 17.465">
  <path id="Union_10" data-name="Union 10" d="M7.151,17.133c-.584-.337-1.175-.661-1.764-.988a12.069,12.069,0,0,1-2.475-1.639,8.688,8.688,0,0,1-2.9-6.424c-.025-1.47-.01-2.94,0-4.41a1.384,1.384,0,0,1,.863-1.31A1.953,1.953,0,0,1,1.5,2.22,13.8,13.8,0,0,0,7,.336,2.382,2.382,0,0,1,7.8,0h.3a2.392,2.392,0,0,1,.8.336,13.82,13.82,0,0,0,4.156,1.657,9.922,9.922,0,0,0,1.33.224,1.542,1.542,0,0,1,1.485,1.159V8.706c-.025.183-.044.367-.075.55a8.746,8.746,0,0,1-4.384,6.379c-.884.516-1.787,1-2.678,1.5a1.493,1.493,0,0,1-1.589-.006Zm.473-15.7A15.108,15.108,0,0,1,1.615,3.5c-.336.042-.357.062-.357.4,0,.684,0,1.367,0,2.209a24.545,24.545,0,0,0,.07,2.752,7.34,7.34,0,0,0,3.461,5.467c.976.619,2.011,1.144,3.018,1.715a.31.31,0,0,0,.338-.027c.9-.5,1.8-1,2.695-1.512A7.334,7.334,0,0,0,13.1,12.511,7.6,7.6,0,0,0,14.64,7.888c.01-1.335,0-2.671,0-4.007,0-.038,0-.077,0-.115A.238.238,0,0,0,14.4,3.5c-.133-.012-.265-.027-.4-.046A15.05,15.05,0,0,1,8.277,1.434a.625.625,0,0,0-.325-.109A.631.631,0,0,0,7.624,1.435Zm-.536,8.9C6.5,9.808,5.9,9.28,5.311,8.745a.628.628,0,0,1-.064-.908.612.612,0,0,1,.888-.047q.616.528,1.21,1.081c.125.116.2.105.307-.016.8-.867,1.6-1.726,2.4-2.59a.689.689,0,0,1,.614-.278.612.612,0,0,1,.514.4.6.6,0,0,1-.129.658c-.341.378-.691.748-1.038,1.122q-.969,1.042-1.939,2.083a.676.676,0,0,1-.53.268H7.515A.637.637,0,0,1,7.089,10.337Z" transform="translate(0.048 0.05)" stroke="#000" stroke-width="0.1"/>
</svg>
