<svg xmlns="http://www.w3.org/2000/svg" xmlns:xlink="http://www.w3.org/1999/xlink" width="29" height="29" viewBox="0 0 29 29">
  <defs>
    <clipPath id="clip-path">
      <rect id="Rectangle_14" data-name="Rectangle 14" width="29" height="29" transform="translate(0.155)" fill="none"/>
    </clipPath>
  </defs>
  <g id="Group_25319" data-name="Group 25319" transform="translate(-0.155)" opacity="0.397">
    <g id="Group_25231" data-name="Group 25231" clip-path="url(#clip-path)">
      <path id="Path_46" data-name="Path 46" d="M24.764,28.694a1.554,1.554,0,0,1-1.011-1.685q.009-9.971,0-19.942c0-1.811.011-3.622,0-5.433A1.555,1.555,0,0,1,24.764,0h.729a1.551,1.551,0,0,1,1.016,1.629Q26.5,14.322,26.5,27.014c0,.037,0,.075,0,.112a1.466,1.466,0,0,1-1.011,1.568Z" transform="translate(-15.125)"/>
      <path id="Path_47" data-name="Path 47" d="M0,34.392a1.38,1.38,0,0,1,1.381-.977,1.339,1.339,0,0,1,1.31,1.337c.024.577.022,1.156,0,1.733a1.332,1.332,0,0,1-1.066,1.332,1.362,1.362,0,0,1-1.576-.859c-.015-.034-.033-.067-.049-.1V34.392" transform="translate(0 -21.278)"/>
      <path id="Path_48" data-name="Path 48" d="M74.252,36.838a1.346,1.346,0,0,1-1.346.978,1.313,1.313,0,0,1-1.345-1.35c-.024-.577-.021-1.156,0-1.734a1.36,1.36,0,0,1,2.617-.51l.074.15Z" transform="translate(-45.558 -21.258)"/>
      <path id="Path_49" data-name="Path 49" d="M35.75,22.832q0-4.046,0-8.093a1.361,1.361,0,0,1,2.717-.163c.005.074,0,.149,0,.224q0,8.023,0,16.046a1.365,1.365,0,1,1-2.722.078q-.008-4.046,0-8.093" transform="translate(-22.764 -8.484)"/>
      <path id="Path_50" data-name="Path 50" d="M59.663,22.812q0-4.063,0-8.125a1.356,1.356,0,0,1,2.2-1.083,1.342,1.342,0,0,1,.513,1.048c.008.2,0,.392,0,.588q0,7.733,0,15.466a2.424,2.424,0,0,1-.032.5,1.354,1.354,0,0,1-2.686-.242c-.007-2.447,0-4.894,0-7.341q0-.406,0-.813" transform="translate(-37.992 -8.465)"/>
      <path id="Path_51" data-name="Path 51" d="M47.669,31.337c0-1.045-.005-2.091,0-3.136a1.393,1.393,0,0,1,1.152-1.5,1.358,1.358,0,0,1,1.549,1.089,3.9,3.9,0,0,1,.042.585q0,2.954,0,5.908a4.3,4.3,0,0,1-.033.5,1.346,1.346,0,0,1-2.673.048,3.5,3.5,0,0,1-.038-.5c0-1,0-2,0-3" transform="translate(-30.353 -16.99)"/>
      <path id="Path_52" data-name="Path 52" d="M14.56,27.1c0,1.895.006,3.789,0,5.683A1.35,1.35,0,0,1,12.5,33.979a1.312,1.312,0,0,1-.653-1.195c-.011-.616,0-1.232,0-1.848q0-4.731,0-9.463a1.37,1.37,0,0,1,1.308-1.461,1.343,1.343,0,0,1,1.41,1.378c0,1.9,0,3.808,0,5.711" transform="translate(-7.538 -12.744)"/>
    </g>
  </g>
</svg>
