<svg xmlns="http://www.w3.org/2000/svg" width="17" height="17" viewBox="0 0 17 17">
  <path id="Union_9" data-name="Union 9" d="M12.684,17a4.061,4.061,0,0,1-1.881-.773.285.285,0,0,0-.206-.04c-.424.03-.848.073-1.273.084A29.628,29.628,0,0,1,4,15.99,4.574,4.574,0,0,1,.356,12.637a14.574,14.574,0,0,1-.267-1.969C.055,10.278.029,9.887,0,9.5V6.773a1.165,1.165,0,0,0,.02-.13A24.473,24.473,0,0,1,.283,4.005,4.55,4.55,0,0,1,3.632.357,14.265,14.265,0,0,1,5.6.089C5.992.055,6.383.029,6.773,0H9.5a.625.625,0,0,0,.1.019,25.819,25.819,0,0,1,2.7.267,4.557,4.557,0,0,1,3.651,3.486,22.312,22.312,0,0,1,.333,3.694,27.053,27.053,0,0,1-.1,3.148.274.274,0,0,0,.052.2A4.02,4.02,0,0,1,17,12.684v.929c-.008.043-.017.086-.025.13A3.847,3.847,0,0,1,15.093,16.5a4.029,4.029,0,0,1-1.48.505Zm.474-6.412a2.54,2.54,0,1,0,.019,0ZM6.182,1.347c-.656.042-1.308.13-1.96.218A3.247,3.247,0,0,0,1.607,4.011a23.065,23.065,0,0,0-.325,4.376,25.747,25.747,0,0,0,.283,3.668A3.251,3.251,0,0,0,4,14.662a19.312,19.312,0,0,0,2.767.3c.912.048,1.824.041,2.737,0,.2-.008.207-.024.13-.2a3.8,3.8,0,0,1-.263-2.431,3.866,3.866,0,0,1,5.394-2.7c.168.075.19.064.2-.115.012-.37.032-.741.032-1.111a28.161,28.161,0,0,0-.288-4.2A3.251,3.251,0,0,0,12.25,1.6,25.4,25.4,0,0,0,8,1.274C7.486,1.293,6.833,1.305,6.182,1.347Zm6.313,13.1c0-.066.008-.132.013-.2a.384.384,0,0,1,.347-.38,1.63,1.63,0,0,1,.626,0,.36.36,0,0,1,.3.294,1.7,1.7,0,0,1,0,.675.378.378,0,0,1-.35.3,2.357,2.357,0,0,1-.281,0q-.061,0-.115,0C12.508,15.149,12.5,14.887,12.495,14.444Zm.651-.956a.642.642,0,0,1-.636-.6c-.01-.387-.011-.775,0-1.162a.643.643,0,0,1,1.281.011c.008.193,0,.387,0,.581s.006.376,0,.564a.641.641,0,0,1-.639.607ZM7.566,9.463h-3.3a1.924,1.924,0,0,1-.281-.017.646.646,0,0,1,.086-1.287c.8,0,1.6,0,2.407,0s1.6,0,2.407,0a.648.648,0,0,1,.472,1.1.717.717,0,0,1-.56.205H7.566Zm3.61-3.94H4.121a.653.653,0,0,1-.68-.473.64.64,0,0,1,.488-.807,1.653,1.653,0,0,1,.314-.025q3.876,0,7.753,0a2.039,2.039,0,0,1,.281.018.645.645,0,0,1-.071,1.286c-.145,0-.291,0-.436,0Z"/>
</svg>
