<svg xmlns="http://www.w3.org/2000/svg" width="18.469" height="18.533" viewBox="0 0 18.469 18.533">
  <path id="Union_8" data-name="Union 8" d="M0,18.489q.633-2.3,1.268-4.593a.342.342,0,0,0-.053-.272A8.977,8.977,0,0,1,.179,7.885a8.911,8.911,0,0,1,3.7-6.1,8.721,8.721,0,0,1,7.4-1.529,8.964,8.964,0,0,1,6.938,6.79,10.089,10.089,0,0,1,.256,1.668v.962c-.045.42-.08.84-.163,1.255a8.992,8.992,0,0,1-2.836,5.04,9.026,9.026,0,0,1-7.127,2.365,8.844,8.844,0,0,1-3.318-.992.362.362,0,0,0-.275-.037q-2.316.612-4.634,1.22a.07.07,0,0,0-.047,0,.137.137,0,0,1-.029,0C.021,18.533.006,18.524,0,18.489Zm5.319-2.812A7.7,7.7,0,0,0,9.37,16.789a5.02,5.02,0,0,0,.767-.051,6.023,6.023,0,0,0,.683-.111,7.591,7.591,0,0,0,5.966-8.561,7.273,7.273,0,0,0-2.058-4.132A7.4,7.4,0,0,0,8.186,1.7,7.281,7.281,0,0,0,3.428,4.376a7.4,7.4,0,0,0-1.707,5.64,7.3,7.3,0,0,0,1.194,3.334.44.44,0,0,1,.056.4c-.213.758-.421,1.519-.629,2.278-.073.263-.055.28.214.209.782-.2,1.566-.405,2.345-.618a.572.572,0,0,1,.15-.022A.5.5,0,0,1,5.319,15.677Zm4.436-2.546A9.1,9.1,0,0,1,5.86,10,6.554,6.554,0,0,1,4.8,8.225a2.663,2.663,0,0,1,.585-2.966,1,1,0,0,1,.775-.318c.109,0,.218.024.327.019a.485.485,0,0,1,.495.351c.2.467.355.953.593,1.4a.949.949,0,0,1-.167,1.247c-.1.1-.18.234-.278.344a.355.355,0,0,0-.033.471,6.127,6.127,0,0,0,2.675,2.468c.146.068.292.133.44.2a.349.349,0,0,0,.447-.1c.228-.269.457-.537.668-.82.179-.241.284-.277.56-.163.636.261,1.244.581,1.86.885a.4.4,0,0,1,.206.456,2.062,2.062,0,0,1-2.116,1.927H11.71l-.1,0A5.057,5.057,0,0,1,9.755,13.131Z"/>
</svg>
